{
  "source": "C:\\Users\\Peter\\Desktop\\stuff\\MIUN\\quantitative_research\\video_compression\\videos\\BVI-HD\\CloudsZoom_1920x1080_60fps.mp4",
  "output": "C:\\Users\\Peter\\Desktop\\stuff\\MIUN\\quantitative_research\\video_compression\\compressed_videos\\BVI-HD\\av1\\12\\CloudsZoom_1920x1080_60fps_av1.mkv",
  "codec": "av1",
  "ok": "Input #0, mov,mp4,m4a,3gp,3g2,mj2, from 'C:\\Users\\Peter\\Desktop\\stuff\\MIUN\\quantitative_research\\video_compression\\videos\\BVI-HD\\CloudsZoom_1920x1080_60fps.mp4':\n  Metadata:\n    major_brand     : isom\n    minor_version   : 512\n    compatible_brands: isomiso2avc1mp41\n    encoder         : Lavf54.28.101\n  Duration: 00:00:05.00, start: 0.000000, bitrate: 32589 kb/s\n  Stream #0:0[0x1](und): Video: h264 (High 4:4:4 Predictive) (avc1 / 0x31637661), yuv420p(progressive), 1920x1080, 32586 kb/s, 60 fps, 60 tbr, 60 tbn (default)\n    Metadata:\n      handler_name    : VideoHandler\n      vendor_id       : [0][0][0][0]\n[out#0/matroska @ 00000218cb104d00] Codec AVOption b:a (set bitrate (in bits/s)) has not been used for any stream. The most likely reason is either wrong type (e.g. a video option with no video streams) or that it is a private option of some decoder which was not actually used for any stream.\nStream mapping:\n  Stream #0:0 -> #0:0 (h264 (native) -> av1 (libsvtav1))\nPress [q] to stop, [?] for help\nSvt[info]: -------------------------------------------\nSvt[info]: SVT [version]:\tSVT-AV1 Encoder Lib v3.1.0-19-g6ecfe8ec\nSvt[info]: SVT [build]  :\tGCC 15.2.0\t 64 bit\nSvt[info]: LIB Build date: Aug 17 2025 11:37:13\nSvt[info]: -------------------------------------------\nSvt[info]: Level of Parallelism: 5\nSvt[info]: Number of PPCS 93\nSvt[info]: [asm level on system : up to avx2]\nSvt[info]: [asm level selected : up to avx2]\nSvt[info]: -------------------------------------------\nSvt[info]: SVT [config]: main profile\ttier (auto)\tlevel (auto)\nSvt[info]: SVT [config]: width / height / fps numerator / fps denominator \t\t: 1920 / 1080 / 60 / 1\nSvt[info]: SVT [config]: bit-depth / color format \t\t\t\t\t: 8 / YUV420\nSvt[info]: SVT [config]: preset / tune / pred struct \t\t\t\t\t: 4 / PSNR / random access\nSvt[info]: SVT [config]: gop size / mini-gop size / key-frame type \t\t\t: 321 / 16 / key frame\nSvt[info]: SVT [config]: BRC mode / target bitrate (kbps)\t\t\t\t: VBR / 12000 \nSvt[info]: SVT [config]: AQ mode / Variance Boost \t\t\t\t\t: 2 / 0\nSvt[info]: SVT [config]: sharpness / luminance-based QP bias \t\t\t\t: 0 / 0\nSvt[info]: SVT [config]: QP scale compress strength \t\t\t\t\t: 0\nSvt[info]: -------------------------------------------\nOutput #0, matroska, to 'C:\\Users\\Peter\\Desktop\\stuff\\MIUN\\quantitative_research\\video_compression\\compressed_videos\\BVI-HD\\av1\\12\\CloudsZoom_1920x1080_60fps_av1.mkv':\n  Metadata:\n    major_brand     : isom\n    minor_version   : 512\n    compatible_brands: isomiso2avc1mp41\n    encoder         : Lavf62.3.100\n  Stream #0:0(und): Video: av1 (AV01 / 0x31305641), yuv420p(tv, progressive), 1920x1080, q=2-31, 12000 kb/s, 60 fps, 1k tbn (default)\n    Metadata:\n      encoder         : Lavc62.11.100 libsvtav1\n      handler_name    : VideoHandler\n      vendor_id       : [0][0][0][0]\n    Side data:\n      cpb: bitrate max/min/avg: 0/0/12000000 buffer size: 12000000 vbv_delay: N/A\nframe=    0 fps=0.0 q=0.0 size=       0KiB time=N/A bitrate=N/A speed=N/A elapsed=0:00:01.55    \nframe=    0 fps=0.0 q=0.0 size=       0KiB time=N/A bitrate=N/A speed=N/A elapsed=0:00:02.52    \nframe=    0 fps=0.0 q=0.0 size=       0KiB time=N/A bitrate=N/A speed=N/A elapsed=0:00:03.05    \nframe=    0 fps=0.0 q=0.0 size=       0KiB time=N/A bitrate=N/A speed=N/A elapsed=0:00:03.75    \nframe=    0 fps=0.0 q=0.0 size=       0KiB time=N/A bitrate=N/A speed=N/A elapsed=0:00:04.36    \nframe=    1 fps=0.2 q=1.0 size=       1KiB time=00:00:00.00 bitrate=N/A speed=   0x elapsed=0:00:04.92    \nframe=    1 fps=0.2 q=1.0 size=       1KiB time=00:00:00.00 bitrate=N/A speed=   0x elapsed=0:00:05.50    \nframe=    1 fps=0.2 q=1.0 size=       1KiB time=00:00:00.00 bitrate=N/A speed=   0x elapsed=0:00:06.07    \nframe=    1 fps=0.1 q=1.0 size=       1KiB time=00:00:00.00 bitrate=N/A speed=   0x elapsed=0:00:06.70    \nframe=    1 fps=0.1 q=1.0 size=       1KiB time=00:00:00.00 bitrate=N/A speed=   0x elapsed=0:00:07.26    \nframe=    1 fps=0.1 q=1.0 size=       1KiB time=00:00:00.00 bitrate=N/A speed=   0x elapsed=0:00:07.83    \nframe=    1 fps=0.1 q=1.0 size=       1KiB time=00:00:00.00 bitrate=N/A speed=   0x elapsed=0:00:08.37    \nframe=    2 fps=0.2 q=6.0 size=       1KiB time=00:00:00.01 bitrate= 341.8kbits/s speed=0.00187x elapsed=0:00:08.92    \nframe=    3 fps=0.3 q=4.0 size=       1KiB time=00:00:00.03 bitrate= 170.9kbits/s speed=0.00351x elapsed=0:00:09.49    \nframe=    4 fps=0.4 q=6.0 size=       1KiB time=00:00:00.05 bitrate= 113.9kbits/s speed=0.00497x elapsed=0:00:10.05    \nframe=    6 fps=0.6 q=6.0 size=       1KiB time=00:00:00.06 bitrate=  85.4kbits/s speed=0.00631x elapsed=0:00:10.57    \nframe=    6 fps=0.5 q=6.0 size=       1KiB time=00:00:00.08 bitrate=  68.4kbits/s speed=0.00747x elapsed=0:00:11.15    \nframe=    7 fps=0.6 q=4.0 size=       1KiB time=00:00:00.10 bitrate=  57.0kbits/s speed=0.00854x elapsed=0:00:11.70    \nframe=    8 fps=0.7 q=6.0 size=       1KiB time=00:00:00.10 bitrate=  57.0kbits/s speed=0.00816x elapsed=0:00:12.26    \nframe=   10 fps=0.8 q=6.0 size=       1KiB time=00:00:00.15 bitrate=  38.0kbits/s speed=0.0117x elapsed=0:00:12.82    \nframe=   11 fps=0.8 q=4.0 size=       1KiB time=00:00:00.16 bitrate=  34.2kbits/s speed=0.0124x elapsed=0:00:13.39    \nframe=   12 fps=0.9 q=5.0 size=       1KiB time=00:00:00.18 bitrate=  31.1kbits/s speed=0.0131x elapsed=0:00:14.03    \nframe=   14 fps=1.0 q=5.0 size=       1KiB time=00:00:00.21 bitrate=  26.3kbits/s speed=0.0148x elapsed=0:00:14.68    \nframe=   16 fps=1.0 q=5.0 size=       1KiB time=00:00:00.25 bitrate=  22.8kbits/s speed=0.0164x elapsed=0:00:15.23    \nframe=   18 fps=1.1 q=5.0 size=       1KiB time=00:00:00.28 bitrate=  20.1kbits/s speed=0.018x elapsed=0:00:15.76    \nframe=   19 fps=1.2 q=4.0 size=       1KiB time=00:00:00.30 bitrate=  19.0kbits/s speed=0.0183x elapsed=0:00:16.37    \nframe=   20 fps=1.2 q=5.0 size=       1KiB time=00:00:00.31 bitrate=  18.0kbits/s speed=0.0187x elapsed=0:00:16.92    \nframe=   22 fps=1.3 q=5.0 size=       1KiB time=00:00:00.35 bitrate=  16.3kbits/s speed=0.02x elapsed=0:00:17.47    \nframe=   22 fps=1.2 q=5.0 size=       1KiB time=00:00:00.35 bitrate=  16.3kbits/s speed=0.0194x elapsed=0:00:18.00    \nframe=   23 fps=1.2 q=4.0 size=       1KiB time=00:00:00.36 bitrate=  15.5kbits/s speed=0.0197x elapsed=0:00:18.62    \nframe=   25 fps=1.3 q=3.0 size=       1KiB time=00:00:00.40 bitrate=  14.2kbits/s speed=0.0208x elapsed=0:00:19.21    \nframe=   26 fps=1.3 q=5.0 size=       1KiB time=00:00:00.41 bitrate=  13.7kbits/s speed=0.0211x elapsed=0:00:19.76    \nframe=   27 fps=1.3 q=4.0 size=       1KiB time=00:00:00.43 bitrate=  13.1kbits/s speed=0.0213x elapsed=0:00:20.36    \nframe=   28 fps=1.3 q=4.0 size=       1KiB time=00:00:00.45 bitrate=  12.7kbits/s speed=0.0215x elapsed=0:00:20.94    \nframe=   31 fps=1.4 q=4.0 size=       1KiB time=00:00:00.50 bitrate=  11.4kbits/s speed=0.0232x elapsed=0:00:21.54    \nframe=   33 fps=1.5 q=1.0 size=       1KiB time=00:00:00.53 bitrate=  10.7kbits/s speed=0.0242x elapsed=0:00:22.07    \nframe=   34 fps=1.5 q=5.0 size=       1KiB time=00:00:00.55 bitrate=  10.4kbits/s speed=0.0243x elapsed=0:00:22.61    \nframe=   35 fps=1.5 q=4.0 size=       1KiB time=00:00:00.56 bitrate=  10.1kbits/s speed=0.0245x elapsed=0:00:23.15    \nframe=   37 fps=1.6 q=4.0 size=       1KiB time=00:00:00.60 bitrate=   9.5kbits/s speed=0.0253x elapsed=0:00:23.68    \nframe=   38 fps=1.6 q=5.0 size=       1KiB time=00:00:00.61 bitrate=   9.2kbits/s speed=0.0255x elapsed=0:00:24.19    \nframe=   39 fps=1.6 q=4.0 size=       1KiB time=00:00:00.63 bitrate=   9.0kbits/s speed=0.0255x elapsed=0:00:24.79    \nframe=   40 fps=1.6 q=5.0 size=       1KiB time=00:00:00.65 bitrate=   8.8kbits/s speed=0.0255x elapsed=0:00:25.44    \nframe=   43 fps=1.7 q=4.0 size=       1KiB time=00:00:00.68 bitrate=   8.3kbits/s speed=0.0263x elapsed=0:00:26.01    \nframe=   44 fps=1.7 q=4.0 size=       1KiB time=00:00:00.71 bitrate=   7.9kbits/s speed=0.0269x elapsed=0:00:26.60    \nframe=   44 fps=1.6 q=4.0 size=       1KiB time=00:00:00.71 bitrate=   7.9kbits/s speed=0.0264x elapsed=0:00:27.11    \nframe=   46 fps=1.7 q=5.0 size=       1KiB time=00:00:00.75 bitrate=   7.6kbits/s speed=0.0271x elapsed=0:00:27.66    \nframe=   49 fps=1.7 q=1.0 size=       1KiB time=00:00:00.80 bitrate=   7.1kbits/s speed=0.0283x elapsed=0:00:28.25    \nframe=   50 fps=1.7 q=5.0 size=       1KiB time=00:00:00.81 bitrate=   7.0kbits/s speed=0.0284x elapsed=0:00:28.77    \nframe=   51 fps=1.7 q=4.0 size=       1KiB time=00:00:00.83 bitrate=   6.8kbits/s speed=0.0284x elapsed=0:00:29.30    \nframe=   52 fps=1.7 q=5.0 size=       1KiB time=00:00:00.85 bitrate=   6.7kbits/s speed=0.0285x elapsed=0:00:29.84    \nframe=   54 fps=1.8 q=6.0 size=       1KiB time=00:00:00.88 bitrate=   6.4kbits/s speed=0.0291x elapsed=0:00:30.38    \nframe=   55 fps=1.8 q=4.0 size=       1KiB time=00:00:00.90 bitrate=   6.3kbits/s speed=0.0291x elapsed=0:00:30.90    \nframe=   55 fps=1.7 q=4.0 size=       1KiB time=00:00:00.90 bitrate=   6.3kbits/s speed=0.0286x elapsed=0:00:31.44    \nframe=   58 fps=1.8 q=5.0 size=       1KiB time=00:00:00.95 bitrate=   6.0kbits/s speed=0.0297x elapsed=0:00:32.03    \nframe=   59 fps=1.8 q=4.0 size=       1KiB time=00:00:00.96 bitrate=   5.9kbits/s speed=0.0297x elapsed=0:00:32.56    \nframe=   60 fps=1.8 q=4.0 size=       1KiB time=00:00:00.98 bitrate=   5.8kbits/s speed=0.0297x elapsed=0:00:33.11    \nframe=   63 fps=1.9 q=4.0 size=       1KiB time=00:00:01.03 bitrate=   5.5kbits/s speed=0.0307x elapsed=0:00:33.70    \nframe=   66 fps=1.9 q=4.0 size=       1KiB time=00:00:01.08 bitrate=   5.3kbits/s speed=0.0315x elapsed=0:00:34.34    \nframe=   66 fps=1.9 q=4.0 size=       1KiB time=00:00:01.08 bitrate=   5.3kbits/s speed=0.0311x elapsed=0:00:34.86    \nframe=   67 fps=1.9 q=4.0 size=       1KiB time=00:00:01.10 bitrate=   5.2kbits/s speed=0.0311x elapsed=0:00:35.39    \nframe=   68 fps=1.9 q=4.0 size=       1KiB time=00:00:01.11 bitrate=   5.1kbits/s speed=0.0311x elapsed=0:00:35.95    \nframe=   69 fps=1.9 q=4.0 size=       1KiB time=00:00:01.13 bitrate=   5.0kbits/s speed=0.031x elapsed=0:00:36.51    \nframe=   70 fps=1.9 q=5.0 size=       1KiB time=00:00:01.15 bitrate=   5.0kbits/s speed=0.0311x elapsed=0:00:37.01    \nframe=   70 fps=1.9 q=5.0 size=       1KiB time=00:00:01.15 bitrate=   5.0kbits/s speed=0.0306x elapsed=0:00:37.55    \nframe=   71 fps=1.9 q=4.0 size=       1KiB time=00:00:01.16 bitrate=   4.9kbits/s speed=0.0306x elapsed=0:00:38.17    \nframe=   71 fps=1.8 q=4.0 size=       1KiB time=00:00:01.16 bitrate=   4.9kbits/s speed=0.0301x elapsed=0:00:38.75    \nframe=   72 fps=1.8 q=5.0 size=       1KiB time=00:00:01.18 bitrate=   4.8kbits/s speed=0.0301x elapsed=0:00:39.35    \nframe=   74 fps=1.9 q=4.0 size=       1KiB time=00:00:01.21 bitrate=   4.7kbits/s speed=0.0305x elapsed=0:00:39.94    \nframe=   75 fps=1.9 q=4.0 size=       1KiB time=00:00:01.21 bitrate=   4.7kbits/s speed=0.03x elapsed=0:00:40.49    \nframe=   75 fps=1.8 q=4.0 size=       1KiB time=00:00:01.23 bitrate=   4.6kbits/s speed=0.03x elapsed=0:00:41.12    \nframe=   76 fps=1.8 q=4.0 size=       1KiB time=00:00:01.25 bitrate=   4.6kbits/s speed=0.03x elapsed=0:00:41.67    \nframe=   77 fps=1.8 q=4.0 size=       1KiB time=00:00:01.26 bitrate=   4.5kbits/s speed=0.0299x elapsed=0:00:42.42    \nframe=   78 fps=1.8 q=5.0 size=       1KiB time=00:00:01.28 bitrate=   4.4kbits/s speed=0.0298x elapsed=0:00:43.05    \nframe=   79 fps=1.8 q=4.0 size=       1KiB time=00:00:01.30 bitrate=   4.4kbits/s speed=0.0298x elapsed=0:00:43.61    \nframe=   82 fps=1.9 q=5.0 size=       1KiB time=00:00:01.33 bitrate=   4.3kbits/s speed=0.0302x elapsed=0:00:44.18    \nframe=   83 fps=1.9 q=4.0 size=       1KiB time=00:00:01.36 bitrate=   4.2kbits/s speed=0.0305x elapsed=0:00:44.82    \nframe=   83 fps=1.8 q=4.0 size=       1KiB time=00:00:01.36 bitrate=   4.2kbits/s speed=0.0301x elapsed=0:00:45.45    \nframe=   84 fps=1.8 q=4.0 size=       1KiB time=00:00:01.38 bitrate=   4.1kbits/s speed=0.0301x elapsed=0:00:46.02    \nframe=   85 fps=1.8 q=3.0 size=       1KiB time=00:00:01.40 bitrate=   4.1kbits/s speed=0.03x elapsed=0:00:46.64    \nframe=   86 fps=1.8 q=5.0 size=       1KiB time=00:00:01.41 bitrate=   4.0kbits/s speed=0.03x elapsed=0:00:47.26    \nframe=   87 fps=1.8 q=4.0 size=       1KiB time=00:00:01.43 bitrate=   4.0kbits/s speed=0.0299x elapsed=0:00:47.89    \nframe=   88 fps=1.8 q=5.0 size=       1KiB time=00:00:01.45 bitrate=   3.9kbits/s speed=0.0299x elapsed=0:00:48.56    \nframe=   90 fps=1.8 q=5.0 size=       1KiB time=00:00:01.48 bitrate=   3.8kbits/s speed=0.0301x elapsed=0:00:49.27    \nframe=   91 fps=1.8 q=4.0 size=       1KiB time=00:00:01.50 bitrate=   3.8kbits/s speed=0.03x elapsed=0:00:49.95    \nframe=   92 fps=1.8 q=4.0 size=       1KiB time=00:00:01.51 bitrate=   3.8kbits/s speed=0.03x elapsed=0:00:50.55    \nframe=   94 fps=1.8 q=4.0 size=       1KiB time=00:00:01.53 bitrate=   3.7kbits/s speed=0.03x elapsed=0:00:51.14    \nframe=   96 fps=1.9 q=5.0 size=       1KiB time=00:00:01.56 bitrate=   3.6kbits/s speed=0.0302x elapsed=0:00:51.81    \nframe=   98 fps=1.9 q=5.0 size=       1KiB time=00:00:01.60 bitrate=   3.6kbits/s speed=0.0305x elapsed=0:00:52.44    \nframe=   99 fps=1.9 q=4.0 size=       1KiB time=00:00:01.63 bitrate=   3.5kbits/s speed=0.0308x elapsed=0:00:53.04    \nframe=  101 fps=1.9 q=3.0 size=       1KiB time=00:00:01.66 bitrate=   3.4kbits/s speed=0.0311x elapsed=0:00:53.57    \nframe=  102 fps=1.9 q=5.0 size=       1KiB time=00:00:01.68 bitrate=   3.4kbits/s speed=0.0311x elapsed=0:00:54.10    \nframe=  103 fps=1.9 q=4.0 size=       1KiB time=00:00:01.70 bitrate=   3.4kbits/s speed=0.0311x elapsed=0:00:54.71    \nframe=  105 fps=1.9 q=1.0 size=       1KiB time=00:00:01.71 bitrate=   3.3kbits/s speed=0.0311x elapsed=0:00:55.26    \nframe=  107 fps=1.9 q=4.0 size=       1KiB time=00:00:01.76 bitrate=   3.2kbits/s speed=0.0316x elapsed=0:00:55.90    \nframe=  108 fps=1.9 q=4.0 size=       1KiB time=00:00:01.78 bitrate=   3.2kbits/s speed=0.0316x elapsed=0:00:56.52    \nframe=  111 fps=1.9 q=4.0 size=       1KiB time=00:00:01.83 bitrate=   3.1kbits/s speed=0.0321x elapsed=0:00:57.09    \nframe=  114 fps=2.0 q=4.0 size=       1KiB time=00:00:01.88 bitrate=   3.0kbits/s speed=0.0327x elapsed=0:00:57.61    \nframe=  116 fps=2.0 q=4.0 size=       1KiB time=00:00:01.91 bitrate=   3.0kbits/s speed=0.033x elapsed=0:00:58.14    \nframe=  118 fps=2.0 q=5.0 size=       1KiB time=00:00:01.95 bitrate=   2.9kbits/s speed=0.0332x elapsed=0:00:58.67    \nframe=  119 fps=2.0 q=4.0 size=       1KiB time=00:00:01.96 bitrate=   2.9kbits/s speed=0.0332x elapsed=0:00:59.20    \nframe=  120 fps=2.0 q=5.0 size=       1KiB time=00:00:01.98 bitrate=   2.9kbits/s speed=0.0332x elapsed=0:00:59.76    \nframe=  123 fps=2.0 q=4.0 size=       1KiB time=00:00:02.03 bitrate=   2.8kbits/s speed=0.0337x elapsed=0:01:00.29    \nframe=  124 fps=2.0 q=4.0 size=       1KiB time=00:00:02.05 bitrate=   2.8kbits/s speed=0.0337x elapsed=0:01:00.85    \nframe=  127 fps=2.1 q=4.0 size=       1KiB time=00:00:02.10 bitrate=   2.7kbits/s speed=0.0342x elapsed=0:01:01.41    \nframe=  130 fps=2.1 q=5.0 size=       1KiB time=00:00:02.15 bitrate=   2.6kbits/s speed=0.0347x elapsed=0:01:01.93    \nframe=  131 fps=2.1 q=4.0 size=       1KiB time=00:00:02.16 bitrate=   2.6kbits/s speed=0.0347x elapsed=0:01:02.44    \nframe=  133 fps=2.1 q=4.0 size=       1KiB time=00:00:02.20 bitrate=   2.6kbits/s speed=0.0349x elapsed=0:01:02.96    \nframe=  135 fps=2.1 q=4.0 size=       1KiB time=00:00:02.23 bitrate=   2.6kbits/s speed=0.0352x elapsed=0:01:03.47    \nframe=  136 fps=2.1 q=5.0 size=       1KiB time=00:00:02.25 bitrate=   2.5kbits/s speed=0.0351x elapsed=0:01:04.05    \nframe=  139 fps=2.2 q=4.0 size=       1KiB time=00:00:02.30 bitrate=   2.5kbits/s speed=0.0356x elapsed=0:01:04.57    \nframe=  140 fps=2.2 q=4.0 size=       1KiB time=00:00:02.31 bitrate=   2.5kbits/s speed=0.0356x elapsed=0:01:05.09    \nframe=  143 fps=2.2 q=4.0 size=       1KiB time=00:00:02.36 bitrate=   2.4kbits/s speed=0.036x elapsed=0:01:05.65    \nframe=  146 fps=2.2 q=4.0 size=       1KiB time=00:00:02.41 bitrate=   2.4kbits/s speed=0.0365x elapsed=0:01:06.19    \nframe=  147 fps=2.2 q=4.0 size=       1KiB time=00:00:02.43 bitrate=   2.3kbits/s speed=0.0365x elapsed=0:01:06.73    \nframe=  149 fps=2.2 q=4.0 size=       1KiB time=00:00:02.46 bitrate=   2.3kbits/s speed=0.0367x elapsed=0:01:07.23    \nframe=  150 fps=2.2 q=5.0 size=       1KiB time=00:00:02.48 bitrate=   2.3kbits/s speed=0.0366x elapsed=0:01:07.76    \nframe=  151 fps=2.2 q=4.0 size=       1KiB time=00:00:02.50 bitrate=   2.3kbits/s speed=0.0366x elapsed=0:01:08.29    \nframe=  153 fps=2.2 q=1.0 size=       1KiB time=00:00:02.53 bitrate=   2.2kbits/s speed=0.0368x elapsed=0:01:08.83    \nframe=  155 fps=2.2 q=4.0 size=       1KiB time=00:00:02.56 bitrate=   2.2kbits/s speed=0.037x elapsed=0:01:09.36    \nframe=  157 fps=2.2 q=4.0 size=       1KiB time=00:00:02.60 bitrate=   2.2kbits/s speed=0.0372x elapsed=0:01:09.89    \nframe=  160 fps=2.3 q=5.0 size=       1KiB time=00:00:02.65 bitrate=   2.1kbits/s speed=0.0376x elapsed=0:01:10.42    \nframe=  163 fps=2.3 q=4.0 size=       1KiB time=00:00:02.70 bitrate=   2.1kbits/s speed=0.0381x elapsed=0:01:10.94    \nframe=  164 fps=2.3 q=5.0 size=       1KiB time=00:00:02.71 bitrate=   2.1kbits/s speed=0.038x elapsed=0:01:11.47    \nframe=  166 fps=2.3 q=5.0 size=       1KiB time=00:00:02.75 bitrate=   2.1kbits/s speed=0.0382x elapsed=0:01:12.00    \nframe=  167 fps=2.3 q=4.0 size=       1KiB time=00:00:02.76 bitrate=   2.1kbits/s speed=0.0381x elapsed=0:01:12.53    \nframe=  169 fps=2.3 q=1.0 size=       1KiB time=00:00:02.80 bitrate=   2.0kbits/s speed=0.0383x elapsed=0:01:13.10    \nframe=  171 fps=2.3 q=4.0 size=       1KiB time=00:00:02.83 bitrate=   2.0kbits/s speed=0.0385x elapsed=0:01:13.62    \nframe=  173 fps=2.3 q=3.0 size=       1KiB time=00:00:02.86 bitrate=   2.0kbits/s speed=0.0387x elapsed=0:01:14.15    \nframe=  175 fps=2.3 q=4.0 size=       1KiB time=00:00:02.90 bitrate=   2.0kbits/s speed=0.0388x elapsed=0:01:14.66    \nframe=  178 fps=2.4 q=5.0 size=       1KiB time=00:00:02.95 bitrate=   1.9kbits/s speed=0.0392x elapsed=0:01:15.17    \nframe=  180 fps=2.4 q=5.0 size=       1KiB time=00:00:02.98 bitrate=   1.9kbits/s speed=0.0394x elapsed=0:01:15.70    \nframe=  182 fps=2.4 q=5.0 size=       1KiB time=00:00:03.01 bitrate=   1.9kbits/s speed=0.0396x elapsed=0:01:16.20    \nframe=  183 fps=2.4 q=4.0 size=       1KiB time=00:00:03.03 bitrate=   1.9kbits/s speed=0.0395x elapsed=0:01:16.73    \nframe=  184 fps=2.4 q=5.0 size=       1KiB time=00:00:03.05 bitrate=   1.9kbits/s speed=0.0395x elapsed=0:01:17.31    \nframe=  187 fps=2.4 q=4.0 size=       1KiB time=00:00:03.08 bitrate=   1.8kbits/s speed=0.0396x elapsed=0:01:17.85    \nframe=  188 fps=2.4 q=4.0 size=       1KiB time=00:00:03.11 bitrate=   1.8kbits/s speed=0.0398x elapsed=0:01:18.40    \nframe=  192 fps=2.4 q=5.0 size=       1KiB time=00:00:03.16 bitrate=   1.8kbits/s speed=0.0401x elapsed=0:01:18.96    \nframe=  194 fps=2.4 q=5.0 size=       1KiB time=00:00:03.21 bitrate=   1.8kbits/s speed=0.0405x elapsed=0:01:19.51    \nframe=  196 fps=2.4 q=4.0 size=       1KiB time=00:00:03.25 bitrate=   1.8kbits/s speed=0.0406x elapsed=0:01:20.02    \nframe=  198 fps=2.5 q=5.0 size=       1KiB time=00:00:03.28 bitrate=   1.7kbits/s speed=0.0408x elapsed=0:01:20.54    \nframe=  199 fps=2.5 q=4.0 size=       1KiB time=00:00:03.30 bitrate=   1.7kbits/s speed=0.0407x elapsed=0:01:21.08    \nframe=  201 fps=2.5 q=1.0 size=       1KiB time=00:00:03.33 bitrate=   1.7kbits/s speed=0.0408x elapsed=0:01:21.67    \nframe=  205 fps=2.5 q=4.0 size=       1KiB time=00:00:03.40 bitrate=   1.7kbits/s speed=0.0414x elapsed=0:01:22.22    \nframe=  207 fps=2.5 q=4.0 size=       1KiB time=00:00:03.43 bitrate=   1.7kbits/s speed=0.0415x elapsed=0:01:22.79    \nframe=  209 fps=2.5 q=1.0 size=       1KiB time=00:00:03.46 bitrate=   1.6kbits/s speed=0.0416x elapsed=0:01:23.31    \nframe=  213 fps=2.5 q=3.0 size=       1KiB time=00:00:03.53 bitrate=   1.6kbits/s speed=0.0421x elapsed=0:01:23.82    \nframe=  215 fps=2.5 q=4.0 size=       1KiB time=00:00:03.53 bitrate=   1.6kbits/s speed=0.0419x elapsed=0:01:24.35    \nframe=  217 fps=2.6 q=1.0 size=       1KiB time=00:00:03.60 bitrate=   1.6kbits/s speed=0.0424x elapsed=0:01:24.86    \nframe=  217 fps=2.5 q=1.0 size=       1KiB time=00:00:03.60 bitrate=   1.6kbits/s speed=0.0422x elapsed=0:01:25.38    \nframe=  219 fps=2.5 q=4.0 size=       1KiB time=00:00:03.63 bitrate=   1.6kbits/s speed=0.0423x elapsed=0:01:25.89    \nframe=  221 fps=2.6 q=3.0 size=       1KiB time=00:00:03.66 bitrate=   1.6kbits/s speed=0.0424x elapsed=0:01:26.42    \nframe=  221 fps=2.5 q=3.0 size=       1KiB time=00:00:03.66 bitrate=   1.6kbits/s speed=0.0421x elapsed=0:01:27.01    \nframe=  225 fps=2.6 q=1.0 size=       1KiB time=00:00:03.73 bitrate=   1.5kbits/s speed=0.0426x elapsed=0:01:27.57    \nframe=  227 fps=2.6 q=4.0 size=       1KiB time=00:00:03.76 bitrate=   1.5kbits/s speed=0.0428x elapsed=0:01:28.08    \nframe=  229 fps=2.6 q=4.0 size=       1KiB time=00:00:03.80 bitrate=   1.5kbits/s speed=0.0429x elapsed=0:01:28.60    \nframe=  233 fps=2.6 q=1.0 size=       1KiB time=00:00:03.86 bitrate=   1.5kbits/s speed=0.0434x elapsed=0:01:29.12    \nframe=  233 fps=2.6 q=1.0 size=       1KiB time=00:00:03.86 bitrate=   1.5kbits/s speed=0.0431x elapsed=0:01:29.64    \nframe=  235 fps=2.6 q=4.0 size=       1KiB time=00:00:03.90 bitrate=   1.5kbits/s speed=0.0432x elapsed=0:01:30.24    \nframe=  237 fps=2.6 q=4.0 size=       1KiB time=00:00:03.93 bitrate=   1.4kbits/s speed=0.0433x elapsed=0:01:30.78    \nframe=  239 fps=2.6 q=4.0 size=       1KiB time=00:00:03.96 bitrate=   1.4kbits/s speed=0.0434x elapsed=0:01:31.31    \nframe=  241 fps=2.6 q=1.0 size=       1KiB time=00:00:04.00 bitrate=   1.4kbits/s speed=0.0436x elapsed=0:01:31.83    \nframe=  243 fps=2.6 q=4.0 size=       1KiB time=00:00:04.03 bitrate=   1.4kbits/s speed=0.0437x elapsed=0:01:32.35    \nframe=  245 fps=2.6 q=3.0 size=       1KiB time=00:00:04.06 bitrate=   1.4kbits/s speed=0.0438x elapsed=0:01:32.86    \nframe=  249 fps=2.7 q=1.0 size=       1KiB time=00:00:04.13 bitrate=   1.4kbits/s speed=0.0443x elapsed=0:01:33.38    \nframe=  249 fps=2.7 q=1.0 size=       1KiB time=00:00:04.13 bitrate=   1.4kbits/s speed=0.044x elapsed=0:01:33.89    \nframe=  251 fps=2.7 q=4.0 size=       1KiB time=00:00:04.16 bitrate=   1.4kbits/s speed=0.0441x elapsed=0:01:34.42    \nframe=  253 fps=2.7 q=3.0 size=       1KiB time=00:00:04.20 bitrate=   1.4kbits/s speed=0.0442x elapsed=0:01:34.95    \nframe=  255 fps=2.7 q=4.0 size=       1KiB time=00:00:04.20 bitrate=   1.4kbits/s speed=0.044x elapsed=0:01:35.50    \nframe=  257 fps=2.7 q=1.0 size=       1KiB time=00:00:04.26 bitrate=   1.3kbits/s speed=0.0444x elapsed=0:01:36.02    \nframe=  261 fps=2.7 q=3.0 size=       1KiB time=00:00:04.33 bitrate=   1.3kbits/s speed=0.0449x elapsed=0:01:36.55    \nframe=  261 fps=2.7 q=3.0 size=       1KiB time=00:00:04.33 bitrate=   1.3kbits/s speed=0.0446x elapsed=0:01:37.06    \nframe=  265 fps=2.7 q=1.0 size=       1KiB time=00:00:04.40 bitrate=   1.3kbits/s speed=0.0451x elapsed=0:01:37.59    \nframe=  265 fps=2.7 q=1.0 size=       1KiB time=00:00:04.40 bitrate=   1.3kbits/s speed=0.0448x elapsed=0:01:38.12    \nframe=  267 fps=2.7 q=4.0 size=       1KiB time=00:00:04.43 bitrate=   1.3kbits/s speed=0.0449x elapsed=0:01:38.71    \nframe=  269 fps=2.7 q=3.0 size=       1KiB time=00:00:04.46 bitrate=   1.3kbits/s speed=0.045x elapsed=0:01:39.23    \nframe=  269 fps=2.7 q=3.0 size=       1KiB time=00:00:04.46 bitrate=   1.3kbits/s speed=0.0448x elapsed=0:01:39.75    \nframe=  273 fps=2.7 q=1.0 size=       1KiB time=00:00:04.53 bitrate=   1.3kbits/s speed=0.0452x elapsed=0:01:40.27    \nframe=  275 fps=2.7 q=4.0 size=       1KiB time=00:00:04.56 bitrate=   1.2kbits/s speed=0.0453x elapsed=0:01:40.78    \nframe=  277 fps=2.7 q=3.0 size=       1KiB time=00:00:04.60 bitrate=   1.2kbits/s speed=0.0454x elapsed=0:01:41.31    \nframe=  281 fps=2.8 q=1.0 size=       1KiB time=00:00:04.66 bitrate=   1.2kbits/s speed=0.0458x elapsed=0:01:41.81    \nframe=  281 fps=2.7 q=1.0 size=       1KiB time=00:00:04.66 bitrate=   1.2kbits/s speed=0.0456x elapsed=0:01:42.34    \nframe=  281 fps=2.7 q=1.0 size=       1KiB time=00:00:04.66 bitrate=   1.2kbits/s speed=0.0454x elapsed=0:01:42.86    \nframe=  283 fps=2.7 q=4.0 size=       1KiB time=00:00:04.70 bitrate=   1.2kbits/s speed=0.0455x elapsed=0:01:43.38    \nframe=  285 fps=2.7 q=3.0 size=       1KiB time=00:00:04.73 bitrate=   1.2kbits/s speed=0.0456x elapsed=0:01:43.90    \nframe=  293 fps=2.8 q=2.0 size=       1KiB time=00:00:04.86 bitrate=   1.2kbits/s speed=0.0466x elapsed=0:01:44.44    \n[out#0/matroska @ 00000218cb104d00] video:4902KiB audio:0KiB subtitle:0KiB other streams:0KiB global headers:0KiB muxing overhead: 0.043548%\nframe=  300 fps=2.9 q=5.0 Lsize=    4904KiB time=00:00:04.98 bitrate=8061.9kbits/s speed=0.0476x elapsed=0:01:44.72    \n",
  "seconds": 105.43732476234436,
  "probe_out": {}
}